<svg width="154" height="150" viewBox="0 0 154 150" fill="#F8F8F8" xmlns="http://www.w3.org/2000/svg"><circle opacity=".1" cx="75" cy="75" r="75" fill="#3CB3C4"/><use href="#b" fill="#3CB3C4"/><use href="#b" fill="url(#s)" fill-opacity=".1"/><use href="#d"/><use href="#b" fill="#2B5DDF" transform="matrix(-1 0 0 1 162 25)"/><use href="#b" transform="matrix(-1 0 0 1 162 25)" fill="url(#s)" fill-opacity=".1"/><use href="#d" transform="matrix(-1 0 0 1 162 25)"/><use href="#b" fill="url(#l)" transform="matrix(.52 0 0 .52 40.3 84.76)"/><use href="#d" transform="matrix(.6 0 0 .6 37.2 81.6)"/><defs><linearGradient id="s" x1="0" y1="0" x2="0" y2="1"><stop stop-opacity="0"/><stop offset="1"/></linearGradient><linearGradient id="l" x1="0" y1="0" x2=".8" y2="1"><stop stop-color="#2B5DDF"/><stop offset="1" stop-color="#3CB3C3"/></linearGradient><path id="b" d="M9 29.723v35.422a4.723 4.723 0 004.723 4.723h30.7l12.613 11.644c.847.781 2.197.012 1.956-1.115l-2.762-12.89h8.265a4.723 4.723 0 004.722-4.723v-33.06A4.723 4.723 0 0064.496 25H13.723A4.723 4.723 0 009 29.723z"/><g id="d"><circle cx="25.5" cy="46.5" r="3.5"/><circle cx="38.5" cy="46.5" r="3.5"/><circle cx="51.5" cy="46.5" r="3.5"/></g></defs></svg>