<svg width="313" height="404" viewBox="0 0 313 404" fill="#FEFEFE" xmlns="http://www.w3.org/2000/svg"><g opacity=".5" fill="url(#l0)"><path d="M146.574 123.837c27.383-15.981 50.02-1.045 54.025 33.442.696 5.965-3.831 13.847-9.36 17.069l-89.329 52.166c-5.529 3.222-10.056.61-9.36-6.183 4.005-39.059 26.686-80.513 54.024-96.494zM116.058 79.073c0 23.819 13.756 35.053 30.734 25.125 16.978-9.928 30.734-37.23 30.734-61.049 0-23.818-13.756-35.053-30.734-25.125-16.978 9.928-30.734 37.23-30.734 61.05z"/><g opacity=".14"><path d="M128.987 109.554c27.382-15.98 50.019-1.045 54.024 33.442.697 5.966-3.83 13.847-9.359 17.07l-89.33 52.166c-5.528 3.222-10.055.609-9.359-6.184 4.005-39.059 26.642-80.513 54.024-96.494zM98.47 64.79c0 23.82 13.757 35.054 30.735 25.126s30.734-37.23 30.734-61.05c0-23.818-13.756-35.052-30.734-25.124S98.471 40.972 98.471 64.79z"/></g></g><g opacity=".2" fill="url(#v1)"><path d="M39.31 246.651c0-1.602.854-3.082 2.241-3.883l68.39-39.497c2.989-1.727 6.727.431 6.727 3.883v32.554L39.31 284.384v-37.733zM196.463 200.06c0-1.603.855-3.083 2.243-3.884l68.389-39.459c2.99-1.724 6.726.433 6.726 3.884v32.558l-77.358 44.676V200.06z"/><g fill="url(#v2)"><path d="M251.967 311.599c-2.612 1.481-4.701 5.139-4.701 8.187v13.281l-8.794 5.051c-2.612 1.48-4.701 5.138-4.701 8.142 0 3.005 2.089 4.224 4.701 2.744l8.794-5.095v13.281c0 3.005 2.089 4.224 4.701 2.743 2.612-1.48 4.702-5.138 4.702-8.142V338.51l8.793-5.051c2.612-1.481 4.702-5.139 4.702-8.143 0-3.005-2.09-4.224-4.702-2.744l-8.793 5.052v-13.281c.043-3.048-2.09-4.268-4.702-2.744zM62.818 141.472l-12.102 23.775c-1.655 3.266-1.394 6.532.609 7.316 2.002.784 4.963-1.263 6.617-4.529l.13-.305v26.388c0 3.005 2.09 4.224 4.702 2.743 2.612-1.524 4.702-5.138 4.702-8.142V162.33l.13.131c1.654 1.349 4.658-.044 6.617-3.136 2.003-3.091 2.264-6.662.61-8.012l-12.015-9.841z"/></g></g><g opacity=".3"><path d="M146.614 249.832c.002-3.454-3.736-5.613-6.727-3.886L2.284 325.416a4.482 4.482 0 00-2.242 3.88L0 403.129l133.645-77.16 10.972 3.584a1.494 1.494 0 001.958-1.42l.039-78.301z" fill="url(#l6)"/><path d="M166.424 266.593a4.484 4.484 0 012.243-3.881l137.603-79.428c2.99-1.726 6.727.433 6.726 3.886l-.04 68.649-133.645 77.16-10.193 15.105c-.825 1.223-2.734.638-2.734-.836l.04-80.655z" fill="url(#l7)"/></g><path d="M100.952 221.985c0 3.31 1.959 4.877 4.397 3.484 2.438-1.393 4.397-5.225 4.397-8.535 0-3.309-1.959-4.877-4.397-3.483-2.438 1.393-4.397 5.225-4.397 8.534z" fill="#2B5DDF"/><path d="M258.105 175.393c0 3.31 1.959 4.877 4.397 3.484 2.438-1.394 4.397-5.226 4.397-8.535s-1.959-4.877-4.397-3.483c-2.438 1.393-4.397 5.225-4.397 8.534z" fill="#3CB3C4"/><path d="M116.842 284.863c0 6.314 3.7 9.232 8.314 6.575 4.615-2.656 8.315-9.928 8.315-16.198 0-6.314-3.7-9.231-8.315-6.575-4.57 2.656-8.314 9.928-8.314 16.198z" fill="#2B5DDF"/><path d="M196.202 272.41c0 6.313-3.744 13.542-8.315 16.198-4.614 2.656-8.315-.305-8.315-6.619s3.744-13.542 8.315-16.198c4.571-2.613 8.315.348 8.315 6.619z" fill="#3CB3C4"/><g opacity=".15"><path d="M96.86 220.548l-23.246 13.456v4.833l23.29-13.455-.044-4.834zm0 9.711l-49.54 28.608v4.921l49.54-28.609v-4.92zM254.144 174.174l-14.018 8.099v4.921l14.018-8.1v-4.92zm-.131 9.71l-49.54 28.609v4.92l49.54-28.608v-4.921zM108.919 282.425l-32.127 18.55v6.705l32.127-18.549v-6.706zm0 13.455l-95.946 55.388v6.706l95.946-55.388v-6.706zm0 13.455l-75.007 43.327v6.705l75.007-43.326v-6.706zM204.125 260.87l32.127-18.549v6.705l-32.127 18.55v-6.706zm-.044 13.412l95.946-55.388v6.706l-95.902 55.388-.044-6.706zm0 13.455l75.007-43.326v6.705l-75.007 43.327v-6.706z"/></g><defs><linearGradient id="T"><stop stop-color="#fff"/><stop offset="1" stop-color="#fff" stop-opacity="0"/></linearGradient><linearGradient id="l0" x1="33.618" y1="97.776" x2="144.84" y2="178.888" gradientUnits="userSpaceOnUse" href="#T"/><linearGradient id="l6" x1="83.661" y1="244.547" x2="64.699" y2="398.299" gradientUnits="userSpaceOnUse" href="#T"/><linearGradient id="l7" x1="198.387" y1="233.403" x2="274.093" y2="292.664" gradientUnits="userSpaceOnUse" href="#T"/><linearGradient id="v1" x1=".3" y1=".4" x2=".47" y2=".74" href="#T"/><linearGradient id="v2" x1=".2" y1=".4" x2=".75" y2=".9" href="#T"/></defs></svg>