<svg width="271" height="235" viewBox="0 0 271 235" fill="#29292E" xmlns="http://www.w3.org/2000/svg"><rect opacity=".7" x="2" width="227" height="168" rx="25" fill="#DBDCDD" stroke="#000"/><path d="M73.605 70.049V50.055c0-8.834 6.636-15.995 14.822-15.995h159.337c8.185 0 14.821 7.161 14.821 15.995V162.02c0 8.834-6.636 15.995-14.821 15.995h-25.939l8.669 43.655c.757 3.816-3.48 6.424-6.137 3.777l-39.587-39.434H88.427c-8.186 0-14.822-7.162-14.822-15.996v-7.997" fill="none" stroke="url(#g)" stroke-width="16" stroke-linejoin="round"/><path d="M27.567 72H42.93v73.075H27.567V72zM105.15 118.78c0 .197-.098 1.575-.295 4.136H64.772c.722 3.283 2.43 5.876 5.121 7.78 2.692 1.904 6.04 2.856 10.045 2.856 2.758 0 5.187-.394 7.288-1.182 2.167-.853 4.17-2.166 6.008-3.939l8.174 8.864c-4.99 5.712-12.278 8.568-21.864 8.568-5.974 0-11.26-1.149-15.855-3.447-4.596-2.364-8.142-5.614-10.637-9.75-2.495-4.136-3.742-8.831-3.742-14.083 0-5.187 1.215-9.849 3.644-13.985 2.495-4.202 5.876-7.452 10.144-9.75 4.333-2.363 9.159-3.545 14.477-3.545 5.186 0 9.88 1.116 14.083 3.348 4.202 2.233 7.485 5.45 9.848 9.652 2.429 4.136 3.644 8.962 3.644 14.477zm-27.477-15.856c-3.48 0-6.401.985-8.765 2.954-2.363 1.97-3.808 4.662-4.333 8.076h26.098c-.525-3.348-1.97-6.008-4.333-7.977-2.364-2.036-5.253-3.053-8.667-3.053z"/><circle cx="121.081" cy="136.591" r="9.271"/><path d="M188.334 157.445a2 2 0 01-1.605-.806l-7.255-9.754a2.058 2.058 0 00-2-.786 37.36 37.36 0 01-6.217.536c-6.315 0-12.118-1.467-17.412-4.401-5.23-2.934-9.407-7.016-12.532-12.246-3.062-5.293-4.593-11.225-4.593-17.794 0-6.569 1.531-12.469 4.593-17.698 3.125-5.23 7.302-9.312 12.532-12.246 5.294-2.934 11.097-4.4 17.412-4.4 6.314 0 12.086 1.466 17.315 4.4 5.294 2.934 9.44 7.016 12.437 12.246 3.062 5.23 4.592 11.129 4.592 17.698 0 5.74-1.18 11.002-3.539 15.785-1.985 4.08-4.661 7.564-8.028 10.452-.867.744-1.023 2.051-.292 2.929l10.66 12.805c1.084 1.303.158 3.28-1.537 3.28h-14.531zm-34.872-45.251c0 5.932 1.595 10.683 4.784 14.255 3.252 3.507 7.589 5.261 13.011 5.261 5.357 0 9.63-1.785 12.819-5.357 3.253-3.572 4.879-8.291 4.879-14.159 0-5.931-1.626-10.651-4.879-14.159-3.189-3.571-7.462-5.357-12.819-5.357-5.422 0-9.759 1.754-13.011 5.262-3.189 3.508-4.784 8.259-4.784 14.254z"/><defs><linearGradient id="g" x1="73.605" y1="34.06" x2="243.79" y2="229.311" gradientUnits="userSpaceOnUse"><stop stop-color="#2B5DDF"/><stop offset="1" stop-color="#3CB3C3"/></linearGradient></defs></svg>