<svg width="157" height="75" viewBox="0 0 157 75" fill="#29292E" xmlns="http://www.w3.org/2000/svg"><path d="M0 18.999h4.473v21.274H0V19zM22.587 32.618c0 .057-.028.459-.086 1.204h-11.67c.211.956.708 1.711 1.492 2.265.784.555 1.758.832 2.924.832.803 0 1.51-.115 2.122-.344a5.326 5.326 0 001.75-1.147l2.379 2.58c-1.453 1.663-3.575 2.495-6.365 2.495-1.74 0-3.278-.335-4.616-1.004-1.339-.688-2.37-1.634-3.097-2.838-.726-1.204-1.09-2.571-1.09-4.1 0-1.51.354-2.867 1.061-4.072a7.528 7.528 0 012.954-2.838c1.261-.688 2.666-1.032 4.214-1.032 1.51 0 2.877.325 4.1.974a6.997 6.997 0 012.867 2.81c.708 1.205 1.061 2.61 1.061 4.215zm-8-4.616c-1.012 0-1.863.287-2.55.86-.689.574-1.11 1.357-1.263 2.351h7.599c-.153-.975-.574-1.749-1.262-2.322-.688-.593-1.53-.89-2.523-.89zM34.367 39.528c-.44.325-.984.574-1.634.745-.63.153-1.3.23-2.007.23-1.835 0-3.259-.468-4.272-1.405-.994-.937-1.49-2.313-1.49-4.129v-6.336h-2.38v-3.44h2.38v-3.757h4.472v3.756h3.842v3.44h-3.842v6.28c0 .65.162 1.156.487 1.52.344.343.822.516 1.434.516.707 0 1.31-.192 1.806-.574l1.205 3.154zM55.486 24.619c1.931 0 3.46.573 4.588 1.72 1.147 1.128 1.72 2.829 1.72 5.104v8.83h-4.473v-8.142c0-1.224-.258-2.132-.774-2.724-.497-.612-1.213-.918-2.15-.918-1.051 0-1.883.344-2.495 1.033-.611.669-.917 1.672-.917 3.01v7.742h-4.473V32.13c0-2.428-.975-3.642-2.925-3.642-1.032 0-1.854.344-2.465 1.033-.612.669-.918 1.672-.918 3.01v7.742h-4.473V24.847h4.273v1.778a5.67 5.67 0 012.093-1.491c.84-.344 1.758-.516 2.752-.516 1.09 0 2.074.22 2.953.66a5.127 5.127 0 012.122 1.863 6.354 6.354 0 012.38-1.864c.975-.44 2.035-.66 3.182-.66zM79.935 32.618c0 .057-.03.459-.087 1.204H68.18c.21.956.707 1.711 1.491 2.265.784.555 1.759.832 2.924.832.803 0 1.51-.115 2.122-.344a5.327 5.327 0 001.75-1.147l2.379 2.58c-1.453 1.663-3.574 2.495-6.365 2.495-1.74 0-3.278-.335-4.616-1.004-1.338-.688-2.37-1.634-3.097-2.838-.726-1.204-1.09-2.571-1.09-4.1 0-1.51.354-2.867 1.061-4.072a7.528 7.528 0 012.954-2.838c1.261-.688 2.666-1.032 4.214-1.032 1.51 0 2.877.325 4.1.974a6.998 6.998 0 012.868 2.81c.707 1.205 1.06 2.61 1.06 4.215zm-8-4.616c-1.013 0-1.864.287-2.552.86-.688.574-1.108 1.357-1.261 2.351h7.598c-.153-.975-.574-1.749-1.262-2.322-.688-.593-1.529-.89-2.523-.89z"/><path d="M106.086 24.848l-3.068 15.425h-4.243l.287-1.52c-1.281 1.167-2.858 1.75-4.731 1.75a6.816 6.816 0 01-3.326-.832c-1.013-.554-1.826-1.347-2.437-2.38-.593-1.05-.89-2.284-.89-3.698 0-1.701.374-3.23 1.12-4.588.764-1.376 1.796-2.446 3.096-3.21 1.3-.785 2.733-1.176 4.3-1.176 2.37 0 4.043.774 5.018 2.322l.401-2.093h4.473zM95.707 36.804c.88 0 1.663-.21 2.351-.63a4.462 4.462 0 001.606-1.807c.382-.764.573-1.644.573-2.638 0-1.051-.315-1.883-.946-2.494-.612-.612-1.472-.918-2.58-.918-.88 0-1.663.22-2.352.66-.688.42-1.223 1.013-1.605 1.777-.383.765-.574 1.644-.574 2.638 0 1.052.306 1.883.918 2.495.63.611 1.5.917 2.609.917z" fill="url(#prefix__lg0)"/><path d="M111.632 40.503c-1.338 0-2.609-.144-3.813-.43-1.185-.306-2.112-.698-2.781-1.176l1.72-3.24c.669.44 1.481.794 2.437 1.061.975.268 1.95.402 2.925.402 1.013 0 1.768-.125 2.265-.373.497-.268.745-.64.745-1.118 0-.383-.22-.66-.659-.832-.44-.172-1.147-.353-2.122-.545-1.109-.21-2.026-.44-2.752-.688a4.746 4.746 0 01-1.864-1.204c-.516-.573-.774-1.348-.774-2.322 0-1.702.707-3.03 2.121-3.986 1.434-.956 3.307-1.433 5.62-1.433a14.1 14.1 0 013.125.344c1.013.23 1.874.544 2.581.946l-1.606 3.268c-1.261-.783-2.781-1.175-4.559-1.175-.974 0-1.72.143-2.236.43-.497.287-.745.65-.745 1.09 0 .401.219.697.659.888.44.172 1.176.364 2.208.574 1.089.21 1.978.44 2.666.688.707.23 1.319.621 1.835 1.175.516.555.774 1.31.774 2.266 0 1.72-.726 3.048-2.179 3.985-1.433.937-3.297 1.405-5.591 1.405z" fill="url(#prefix__lg1)"/><path d="M131.595 31.557l5.304 8.716h-5.189l-3.67-5.992-2.724 2.265-.746 3.727h-4.472L124.341 19h4.473l-2.38 11.899 7.397-6.05h5.821l-8.057 6.71z" fill="url(#prefix__lg2)"/><path d="M81.084 15.902V8.734A5.734 5.734 0 0186.82 3h61.644a5.735 5.735 0 015.735 5.734v40.141a5.735 5.735 0 01-5.735 5.734h-10.035l3.354 15.651c.293 1.368-1.346 2.303-2.374 1.354l-15.316-14.137H86.819a5.734 5.734 0 01-5.735-5.735v-2.867" stroke="url(#prefix__lg3)" stroke-width="4.301" fill="none"/><defs><linearGradient id="prefix__lg0" x1="87.679" y1="18.999" x2="99.758" y2="53.111" gradientUnits="userSpaceOnUse"><stop stop-color="#2B5DDF"/><stop offset="1" stop-color="#3CB3C3"/></linearGradient><linearGradient id="prefix__lg1" x1="87.679" y1="18.999" x2="99.758" y2="53.111" gradientUnits="userSpaceOnUse"><stop stop-color="#2B5DDF"/><stop offset="1" stop-color="#3CB3C3"/></linearGradient><linearGradient id="prefix__lg2" x1="87.679" y1="18.999" x2="99.758" y2="53.111" gradientUnits="userSpaceOnUse"><stop stop-color="#2B5DDF"/><stop offset="1" stop-color="#3CB3C3"/></linearGradient><linearGradient id="prefix__lg3" x1="81.084" y1="3" x2="141.295" y2="77.547" gradientUnits="userSpaceOnUse"><stop stop-color="#2B5DDF"/><stop offset="1" stop-color="#3CB3C3"/></linearGradient></defs></svg>