<svg width="79" height="75" viewBox="0 0 79 75" fill="none" xmlns="http://www.w3.org/2000/svg"><path d="M3.084 15.902V8.734A5.734 5.734 0 018.82 3h61.644a5.734 5.734 0 015.735 5.734v40.141a5.734 5.734 0 01-5.735 5.734H60.428l3.354 15.651c.293 1.368-1.346 2.303-2.374 1.354L46.092 57.477H8.82a5.734 5.734 0 01-5.735-5.735v-2.867" stroke="url(#prefix__paint3_linear)" stroke-width="4.301"/><path d="M28.086 24.848l-3.068 15.425h-4.243l.287-1.52c-1.281 1.167-2.858 1.75-4.731 1.75a6.816 6.816 0 01-3.326-.832c-1.013-.554-1.826-1.347-2.437-2.38-.593-1.05-.89-2.284-.89-3.698 0-1.701.374-3.23 1.12-4.588.764-1.376 1.796-2.446 3.096-3.21 1.3-.785 2.733-1.176 4.3-1.176 2.37 0 4.043.774 5.018 2.322l.401-2.093h4.473zM17.707 36.804c.88 0 1.663-.21 2.351-.63a4.462 4.462 0 001.606-1.807c.382-.764.573-1.644.573-2.638 0-1.051-.315-1.883-.946-2.494-.612-.612-1.472-.918-2.58-.918-.88 0-1.663.22-2.352.66-.688.42-1.223 1.013-1.605 1.777-.383.765-.574 1.644-.574 2.638 0 1.052.306 1.883.918 2.495.63.611 1.5.917 2.609.917z" fill="url(#prefix__paint0_linear)"/><path d="M33.632 40.503c-1.338 0-2.609-.144-3.813-.43-1.185-.306-2.112-.698-2.781-1.176l1.72-3.24c.669.44 1.481.794 2.437 1.061.975.268 1.95.402 2.925.402 1.013 0 1.768-.125 2.265-.373.497-.268.745-.64.745-1.118 0-.383-.22-.66-.66-.832-.439-.172-1.146-.353-2.12-.545-1.11-.21-2.027-.44-2.753-.688a4.751 4.751 0 01-1.864-1.204c-.516-.573-.774-1.348-.774-2.322 0-1.702.707-3.03 2.122-3.986 1.433-.956 3.306-1.433 5.62-1.433 1.07 0 2.111.114 3.124.344 1.014.23 1.874.544 2.58.946L40.8 29.177c-1.261-.783-2.78-1.175-4.559-1.175-.974 0-1.72.143-2.236.43-.497.287-.745.65-.745 1.09 0 .401.22.697.659.888.44.172 1.175.364 2.208.574 1.09.21 1.978.44 2.666.688.707.23 1.32.621 1.835 1.175.516.555.774 1.31.774 2.266 0 1.72-.726 3.048-2.179 3.985-1.433.937-3.297 1.405-5.59 1.405z" fill="url(#prefix__paint1_linear)"/><path d="M53.595 31.557l5.304 8.716h-5.19l-3.67-5.992-2.723 2.265-.745 3.727h-4.473L46.34 19h4.473l-2.38 11.899 7.398-6.05h5.82l-8.057 6.71z" fill="url(#prefix__paint2_linear)"/><defs><linearGradient id="prefix__paint0_linear" x1="9.679" y1="18.999" x2="21.758" y2="53.111" gradientUnits="userSpaceOnUse"><stop stop-color="#2B5DDF"/><stop offset="1" stop-color="#3CB3C3"/></linearGradient><linearGradient id="prefix__paint1_linear" x1="9.679" y1="18.999" x2="21.758" y2="53.111" gradientUnits="userSpaceOnUse"><stop stop-color="#2B5DDF"/><stop offset="1" stop-color="#3CB3C3"/></linearGradient><linearGradient id="prefix__paint2_linear" x1="9.679" y1="18.999" x2="21.758" y2="53.111" gradientUnits="userSpaceOnUse"><stop stop-color="#2B5DDF"/><stop offset="1" stop-color="#3CB3C3"/></linearGradient><linearGradient id="prefix__paint3_linear" x1="3.084" y1="3" x2="63.295" y2="77.547" gradientUnits="userSpaceOnUse"><stop stop-color="#2B5DDF"/><stop offset="1" stop-color="#3CB3C3"/></linearGradient></defs></svg>