<svg width="160" height="154" viewBox="0 0 160 154" fill="none" xmlns="http://www.w3.org/2000/svg">
<rect opacity="0.7" x="1" y="0" width="125" height="105" rx="11" fill="#DBDCDD" stroke="#29292E"/>
<g fill="#29292E">
<path d="M54.1652 40.8313H64.8756V91.7744H54.1652V40.8313Z"/>
<path d="M108.251 73.4431C108.251 73.5804 108.183 74.5416 108.045 76.3267H80.1023C80.6058 78.6152 81.7959 80.4232 83.6725 81.7505C85.5491 83.0779 87.8834 83.7416 90.6754 83.7416C92.5978 83.7416 94.2913 83.4669 95.756 82.9177C97.2664 82.3227 98.6625 81.4073 99.944 80.1714L105.643 86.3505C102.164 90.3326 97.0834 92.3236 90.4008 92.3236C86.2356 92.3236 82.5511 91.5226 79.3471 89.9207C76.1431 88.2729 73.6715 86.0072 71.9322 83.1237C70.1929 80.2401 69.3233 76.9675 69.3233 73.3058C69.3233 69.6899 70.17 66.4402 71.8636 63.5566C73.6029 60.6272 75.9601 58.3616 78.9352 56.7596C81.9561 55.1118 85.3202 54.288 89.0277 54.288C92.6436 54.288 95.9162 55.0661 98.8455 56.6223C101.775 58.1785 104.063 60.4213 105.711 63.3506C107.405 66.2342 108.251 69.5983 108.251 73.4431ZM89.0963 62.3894C86.6705 62.3894 84.6337 63.076 82.9859 64.4491C81.3381 65.8222 80.3312 67.6989 79.965 70.0789H98.159C97.7928 67.7446 96.7858 65.8909 95.1381 64.5178C93.4903 63.0989 91.4764 62.3894 89.0963 62.3894Z"/>
</g>
<path d="M26.8318 42.2154V28.805C26.8318 22.8799 31.2828 18.0767 36.7733 18.0767H143.644C149.135 18.0767 153.585 22.8799 153.585 28.805V103.903C153.585 109.828 149.135 114.632 143.644 114.632H126.246L132.061 143.913C132.569 146.472 129.727 148.221 127.945 146.445L101.393 119.996H36.7733C31.2828 119.996 26.8318 115.193 26.8318 109.268V103.903" stroke="#3CB3C3" stroke-width="12" stroke-linecap="round" stroke-linejoin="round"/>
</svg>
